<svg viewBox="0 0 800 800" xmlns="http://www.w3.org/2000/svg"><path d="M460.5431238307094,489.26239882620905 L460.94476630500407,389.69604912707973 M460.94476630500407,389.69604912707973 L468.1960744569288,392.23119813776174 M468.1960744569288,392.23119813776174 L474.4030640343446,395.0349969059644 M474.4030640343446,395.0349969059644 L479.46515139284486,398.065545632325 M479.46515139284486,398.065545632325 L483.29806267744766,401.27709418874224 M483.29806267744766,401.27709418874224 L485.8354318171004,404.62063133206385 M485.8354318171004,404.62063133206385 L487.0301816364067,408.044560524615 M487.0301816364067,408.044560524615 L486.8557263390704,411.49542663749 M486.8557263390704,411.49542663749 L485.30684384896205,414.9187260570296 M485.30684384896205,414.9187260570296 L482.4002946823446,418.25976596293816 M482.4002946823446,418.25976596293816 L478.17499893128354,421.4645621774413 M478.17499893128354,421.4645621774413 L472.6919195768885,424.48076935441884 M472.6919195768885,424.48076935441884 L466.03343544724595,427.2586160418478 M466.03343544724595,427.2586160418478 L458.3023534148959,429.75183276685254 M458.3023534148959,429.75183276685254 L449.62041976036613,431.91853328798845 M449.62041976036613,431.91853328798845 L440.12642655465527,433.72204033627656 M440.12642655465527,433.72204033627656 L429.97393048271914,435.13163477433477 M429.97393048271914,435.13163477433477 L419.3285764220337,436.1231782002526 M419.3285764220337,436.1231782002526 L408.36513596884794,436.6796323062439 M408.36513596884794,436.6796323062439 L397.2642997284245,436.79140465604587 M397.2642997284245,436.79140465604587 L386.20933202160256,436.45656977430315 M386.20933202160256,436.45656977430315 L375.38264397483914,435.6808991137667 M375.38264397483914,435.6808991137667 L364.96236868352514,434.47774645683205 M364.96236868352514,434.47774645683205 L355.1191087820323,432.8677535160753 M355.1191087820323,432.8677535160753 L346.01281457166965,430.87842118252865 M346.01281457166965,430.87842118252865 L337.7899729463066,428.5435342804943 M337.7899729463066,428.5435342804943 L330.5811171808098,425.9024723914791 M330.5811171808098,425.9024723914791 L324.49873202468393,422.999421376208 M324.49873202468393,422.999421376208 L319.63556631910717,419.8825158189239 M319.63556631910717,419.8825158189239 L316.06339268577926,416.6029297267359 M316.06339268577926,416.6029297267359 L313.83219522269627,413.2139471173268 M313.83219522269627,413.2139471173268 L312.96981836359333,409.7700181744995 M312.96981836359333,409.7700181744995 L313.4819703921814,406.3258538492243 M313.4819703921814,406.3258538492243 L315.3526619542381,402.93553693801914 M315.3526619542381,402.93553693801914 L318.54491832378835,399.65168923927996 M318.54491832378835,399.65168923927996 L323.00187042924426,396.52470346502446 M323.00187042924426,396.52470346502446 L328.64799909485936,393.6020381926577 M328.64799909485936,393.6020381926577 L335.3906762568879,390.9275892211531 M335.3906762568879,390.9275892211531 L343.12179863772826,388.5411303648047 M343.12179863772826,388.5411303648047 L351.7196099751873,386.4778398864207 M351.7196099751873,386.4778398864207 L361.0505971092655,384.76789617295924 M361.0505971092655,384.76789617295924 L370.97144189381856,383.4361376030576 M370.97144189381856,383.4361376030576 L381.3310543924495,382.5018093617964 M381.3310543924495,382.5018093617964 L391.97262048848535,381.9783528340983 M391.97262048848535,381.9783528340983 L402.7356799369818,381.8732854475684 M402.7356799369818,381.8732854475684 L413.4581996534257,382.18811122851434 M413.4581996534257,382.18811122851434 L423.9786645854637,382.9183167237865 M423.9786645854637,382.9183167237865 L434.1381871043788,384.0534068737996 M434.1381871043788,384.0534068737996 L443.782550289686,385.57701878119315 M443.782550289686,385.57701878119315 L452.7642989043289,387.46708144757855 M452.7642989043289,387.46708144757855 L460.94476630500407,389.69604912707973 M460.5431238307094,489.26239882620905 L452.4170447465918,486.92230985716475 M452.4170447465918,486.92230985716475 L443.49476368829187,484.9379906608359 M443.49476368829187,484.9379906608359 L433.9140493889436,483.3383764003605 M433.9140493889436,483.3383764003605 L423.82141472350753,482.14665260987044 M423.82141472350753,482.14665260987044 L413.37010080036805,481.38000921236704 M413.37010080036805,481.38000921236704 L402.7179967707028,481.0494720456652 M402.7179967707028,481.0494720456652 L392.02560655670607,481.15978290891707 M392.02560655670607,481.15978290891707 L381.4539496443356,481.709361677119 M381.4539496443356,481.709361677119 L371.16248022116645,482.6903106572077 M371.16248022116645,482.6903106572077 L361.3070239413411,484.08850886280953 M361.3070239413411,484.08850886280953 L352.03771031903705,485.8837388086104 M352.03771031903705,485.8837388086104 L343.4969359181664,488.0499085073948 M343.4969359181664,488.0499085073948 L335.81734257478894,490.5553183631787 M335.81734257478894,490.5553183631787 L329.11987721994785,493.3630194826193 M329.11987721994785,493.3630194826193 L323.51190809773885,496.4312394448269 M323.51190809773885,496.4312394448269 L319.08541533584037,499.71388075646246 M319.08541533584037,499.71388075646246 L315.9153698011838,503.1611091261887 M315.9153698011838,503.1611091261887 L314.0582047082872,506.7200144705727 M314.0582047082872,506.7200144705727 L313.5505830184508,510.33535189179776 M313.5505830184508,510.33535189179776 L314.40831764258746,513.9503485347584 M314.40831764258746,513.9503485347584 L316.62566826812804,517.507578075931 M316.62566826812804,517.507578075931 L320.1749102386937,520.9498937050985 M320.1749102386937,520.9498937050985 L325.0063353589248,524.2213780269276 M325.0063353589248,524.2213780269276 L331.0486045403651,527.2683329592963 M331.0486045403651,527.2683329592963 L338.2095578003163,530.0402541696737 M338.2095578003163,530.0402541696737 L346.3774484485136,532.4907841561962 M346.3774484485136,532.4907841561962 L355.4226202194755,534.5786108589746 M355.4226202194755,534.5786108589746 L365.1995879688,536.2682937113818 M365.1995879688,536.2682937113818 L375.5495097819876,537.5309855184885 M375.5495097819876,537.5309855184885 L386.3029766350249,538.3450349163895 M386.3029766350249,538.3450349163895 L397.2831097747068,538.6964353352515 M397.2831097747068,538.6964353352515 L408.3087870450226,538.579133286643 M408.3087870450226,538.579133286643 L419.19804002660317,537.9951483313887 M419.19804002660317,537.9951483313887 L429.77145314837475,536.9545417305482 M429.77145314837475,536.9545417305482 L439.8554819955972,535.4751849114928 M439.8554819955972,535.4751849114928 L449.2856355466871,533.5823974310292 M449.2856355466871,533.5823974310292 L457.9094147036725,531.3084030560365 M457.9094147036725,531.3084030560365 L465.5889687639331,528.6916776898126 M465.5889687639331,528.6916776898126 L472.203360514532,525.7761645772825 M472.203360514532,525.7761645772825 L477.6504476100784,522.6104091276427 M477.6504476100784,522.6104091276427 L481.848362871359,519.2466353639209 M481.848362871359,519.2466353639209 L484.7364981593065,515.7397730126564 M484.7364981593065,515.7397730126564 L486.27613074438483,512.1464769871709 M486.27613074438483,512.1464769871709 L486.45054332463206,508.5241516476191 M486.45054332463206,508.5241516476191 L485.2648526395345,504.9300086369821 M485.2648526395345,504.9300086369821 L482.7453991640636,501.42016482787517 M482.7453991640636,501.42016482787517 L478.938884767608,498.048791524662 M478.938884767608,498.048791524662 L473.91118191909976,494.867350894613 M473.91118191909976,494.867350894613 L467.7459647526749,491.9238855464148 M467.7459647526749,491.9238855464148 L460.5431238307094,489.26239882620905 M460.94476630500407,389.69604912707973 L456.68233821664626,379.3424740790259 M456.68233821664626,379.3424740790259 L452.4066630102943,368.95672135489656 M452.4066630102943,368.95672135489656 L459.12934976002043,371.3087172960526 M459.12934976002043,371.3087172960526 L464.77778055139976,373.92554861340653 M464.77778055139976,373.92554861340653 L469.24392364985476,376.7606068534437 M469.24392364985476,376.7606068534437 L472.44004195278853,379.76290683949884 M472.44004195278853,379.76290683949884 L474.3005992871426,382.87791194666147 M474.3005992871426,382.87791194666147 L474.7839459941241,386.04843181587273 M474.7839459941241,386.04843181587273 L473.8736002508632,389.21562640894473 M473.8736002508632,389.21562640894473 L471.5790923095224,392.32007862219876 M471.5790923095224,392.32007862219876 L467.9363587714683,395.3029287445206 M467.9363587714683,395.3029287445206 L463.00758045248836,398.1070414440048 M463.00758045248836,398.1070414440048 L456.88045789390236,400.6781827967201 M456.88045789390236,400.6781827967201 L449.6669149482299,402.966180916234 M449.6669149482299,402.966180916234 L441.50118282995663,404.92602936586525 M441.50118282995663,404.92602936586525 L432.5373259219255,406.51890574530756 M432.5373259219255,406.51890574530756 L422.94624072413893,407.71307581370326 M422.94624072413893,407.71307581370326 L412.9121734296944,408.4846390544036 M412.9121734296944,408.4846390544036 L402.6288695826493,408.81810304306646 M402.6288695826493,408.81810304306646 L392.29544895647547,408.7067618000487 M392.29544895647547,408.7067618000487 L382.1121109550054,408.152854041346 M382.1121109550054,408.152854041346 L372.27581992260406,407.16751338477053 M372.27581992260406,407.16751338477053 L362.9760625472579,405.77049881738054 M362.9760625472579,405.77049881738054 L354.3908822208586,403.98970657397143 M354.3908822208586,403.98970657397143 L346.68316176532466,401.8605212918697 M346.68316176532466,401.8605212918697 L339.99739270815786,399.4249778710599 M339.99739270815786,399.4249778710599 L334.4569262761145,396.7307989676448 M334.4569262761145,396.7307989676448 L330.1617836478631,393.8303283497437 M330.1617836478631,393.8303283497437 L327.18701810322847,390.7794010304885 M327.18701810322847,390.7794010304885 L325.5817512376572,387.6361585194538 M325.5817512376572,387.6361585194538 L325.3687028841505,384.4598844302394 M325.3687028841505,384.4598844302394 L326.54431315848177,381.30984535338746 M326.54431315848177,381.30984535338746 L329.07938299889656,378.244186675542 M329.07938299889656,378.244186675542 L332.9201374616212,375.31889227713305 M332.9201374616212,375.31889227713305 L337.9897098375038,372.5868304576126 M337.9897098375038,372.5868304576126 L344.1899550504583,370.0968928645799 M344.1899550504583,370.0968928645799 L351.40352177078717,367.89322972897884 M351.40352177078717,367.89322972897884 L359.4961718617523,366.01459275547995 M359.4961718617523,366.01459275547995 L368.31925658865174,364.4937803720768 M368.31925658865174,364.4937803720768 L377.7123176168927,363.35718079984514 M377.7123176168927,363.35718079984514 L387.50579559151504,362.6244232030483 M387.50579559151504,362.6244232030483 L397.52379129470995,362.30812061060976 M397.52379129470995,362.30812061060976 L407.58686646096254,362.4137056477226 M407.58686646096254,362.4137056477226 L417.514877109113,362.9393666466326 M417.514877109113,362.9393666466326 L427.12979945994624,363.8760659525614 M427.12979945994624,363.8760659525614 L436.2585660392549,365.20765375567566 M436.2585660392549,365.20765375567566 L444.7358144612609,366.911087566095 M444.7358144612609,366.911087566095 L452.4066630102943,368.95672135489656 M448.30212175794145,493.34273285046504 L440.89644486706806,491.23776603773365 M440.89644486706806,491.23776603773365 L432.683270205809,489.50353768994415 M432.683270205809,489.50353768994415 L423.82673620297317,488.1732038551129 M423.82673620297317,488.1732038551129 L414.5024236248838,487.2720636648823 M414.5024236248838,487.2720636648823 L404.8941325013551,486.8171937047374 M404.8941325013551,486.8171937047374 L395.19062573755673,486.8171937047374 M395.19062573755673,486.8171937047374 L385.582334614028,487.2720636648823 M385.582334614028,487.2720636648823 L376.2580220359387,488.1732038551129 M376.2580220359387,488.1732038551129 L367.40148803310285,489.50353768994415 M367.40148803310285,489.50353768994415 L359.1883133718438,491.23776603773365 M359.1883133718438,491.23776603773365 L351.7826364809702,493.3427328504651 M351.7826364809702,493.3427328504651 L345.3340934432621,495.7779439487353 M345.3340934432621,495.7779439487353 L339.97484119603814,498.4961945199136 M339.97484119603814,498.4961945199136 L335.81684224690423,501.4443515402577 M335.81684224690423,501.4443515402577 L332.9493336866722,504.5642473916873 M332.9493336866722,504.5642473916873 L331.4366866906087,507.7937213530112 M331.4366866906087,507.7937213530112 L331.3166081582141,511.0677688363019 M331.3166081582141,511.0677688363019 L332.59882410546965,514.3197962995839 M332.59882410546965,514.3197962995839 L335.2642921551784,517.4829727621525 M335.2642921551784,517.4829727621525 L339.2650074013776,520.4916324671497 M339.2650074013776,520.4916324671497 L344.524475806913,523.2827075665654 M344.524475806913,523.2827075665654 L350.9388212095513,525.7971663665952 M350.9388212095513,525.7971663665952 L358.37866146716203,527.9813841992614 M358.37866146716203,527.9813841992614 L366.69159658171856,529.7884461399228 M366.69159658171856,529.7884461399228 L375.7054092047195,531.1792943879193 M375.7054092047195,531.1792943879193 L385.2317771298943,532.1237260309649 M385.2317771298943,532.1237260309649 L395.07052934763504,532.601155935959 M395.07052934763504,532.601155935959 L405.0142288912768,532.601155935959 M405.0142288912768,532.601155935959 L414.8529811090176,532.1237260309649 M414.8529811090176,532.1237260309649 L424.37934903419233,531.1792943879193 M424.37934903419233,531.1792943879193 L433.3931616571932,529.7884461399228 M433.3931616571932,529.7884461399228 L441.7060967717498,527.9813841992616 M441.7060967717498,527.9813841992616 L449.14593702936094,525.7971663665951 M449.14593702936094,525.7971663665951 L455.5602824319988,523.2827075665654 M455.5602824319988,523.2827075665654 L460.8197508375343,520.4916324671497 M460.8197508375343,520.4916324671497 L464.82046608373344,517.4829727621525 M464.82046608373344,517.4829727621525 L467.48593413344224,514.3197962995839 M467.48593413344224,514.3197962995839 L468.76815008069775,511.0677688363019 M468.76815008069775,511.0677688363019 L468.64807154830316,507.7937213530112 M468.64807154830316,507.7937213530112 L467.13542455223956,504.5642473916873 M467.13542455223956,504.5642473916873 L464.2679159920076,501.4443515402577 M464.2679159920076,501.4443515402577 L460.1099170428737,498.4961945199136 M460.1099170428737,498.4961945199136 L454.7506647956497,495.7779439487353 M454.7506647956497,495.7779439487353 L448.30212175794145,493.34273285046504 M452.4066630102943,368.95672135489656 L452.7577085672949,267.60485411228257 M452.7577085672949,267.60485411228257 L459.52600521374757,269.83406356102296 M459.52600521374757,269.83406356102296 L465.2130145584722,272.3143303020995 M465.2130145584722,272.3143303020995 L469.70994938593003,275.0014920708523 M469.70994938593003,275.0014920708523 L472.9284385256611,277.84723539365075 M472.9284385256611,277.84723539365075 L474.8024487753492,280.7998766878635 M474.8024487753492,280.7998766878635 L475.28998562835494,283.8052122707282 M475.28998562835494,283.8052122707282 L474.37438779067327,286.8074694868212 M474.37438779067327,286.8074694868212 L472.0651821271281,289.75032319875413 M472.0651821271281,289.75032319875413 L468.3984857096101,292.5779713079036 M468.3984857096101,292.5779713079036 L463.4368474122284,295.23624151791046 M463.4368474122284,295.23624151791046 L457.26852268344413,297.6737079948625 M457.26852268344413,297.6737079948625 L450.0061715110954,299.84279279770067 M450.0061715110954,299.84279279770067 L441.78493136230776,301.7008132945517 M441.78493136230776,301.7008132945517 L432.7599266226588,303.2109492809642 M432.7599266226588,303.2109492809642 L423.103246068511,304.3431015791605 M423.103246068511,304.3431015791605 L413.000434226924,305.07460018857114 M413.000434226924,305.07460018857114 L402.6466110458682,305.3907498892709 M402.6466110458682,305.3907498892709 L392.24231395310903,305.28518967250096 M392.24231395310903,305.28518967250096 L381.9891687181939,304.76004309704507 M381.9891687181939,304.76004309704507 L372.0855399719112,303.8258709725982 M372.0855399719112,303.8258709725982 L362.7222546521754,302.5014152931709 M362.7222546521754,302.5014152931709 L354.0786050693361,300.81313555937186 M354.0786050693361,300.81313555937186 L346.31860314884045,298.79459243153997 M346.31860314884045,298.79459243153997 L339.5877259214799,296.48565173405666 M339.5877259214799,296.48565173405666 L334.01014751761664,293.93157048899866 M334.01014751761664,293.93157048899866 L329.686535733513,291.18198428278686 M329.686535733513,291.18198428278686 L326.6924056274283,288.2898348718051 M326.6924056274283,288.2898348718051 L325.07715291528416,285.31024603643243 M325.07715291528416,285.31024603643243 L324.86358524935287,282.29941908259735 M324.86358524935287,282.29941908259735 L326.0480501070108,279.31353373061006 M326.0480501070108,279.31353373061006 L328.6010847619582,276.4077015002679 M328.6010847619582,276.4077015002679 L332.46849157675433,273.6349800418692 M332.46849157675433,273.6349800418692 L337.5728363285131,271.0454695527634 M337.5728363285131,271.0454695527634 L343.81527713385276,268.6854976349156 M343.81527713385276,268.6854976349156 L351.07765273105224,266.59689564005953 M351.07765273105224,266.59689564005953 L359.22481854142234,264.8163771659685 M359.22481854142234,264.8163771659685 L368.1071393007284,263.37501358774966 M368.1071393007284,263.37501358774966 L377.5631061239815,262.2978022291829 M377.5631061239815,262.2978022291829 L387.42206080350957,261.603336813495 M387.42206080350957,261.603336813495 L397.506972159078,261.3035646647484 M397.506972159078,261.3035646647484 L407.63725167003895,261.4036315892357 M407.63725167003895,261.4036315892357 L417.6316014741471,261.90182157390194 M417.6316014741471,261.90182157390194 L427.31085482804167,262.78957405224264 M427.31085482804167,262.78957405224264 L436.5008270431605,264.0515913771127 M436.5008270431605,264.0515913771127 L445.03507902766574,265.6660461152629 M445.03507902766574,265.6660461152629 L452.7577085672949,267.60485411228257 M448.30212175794145,493.34273285046504 L448.62321119665387,393.5827141612574 M448.62321119665387,393.5827141612574 L455.1151394440949,395.9023945658141 M455.1151394440949,395.9023945658141 L460.5106850016244,398.4917343852023 M460.5106850016244,398.4917343852023 L464.6971091996395,401.30013457606026 M464.6971091996395,401.30013457606026 L467.5845355215182,404.27219699744063 M467.5845355215182,404.27219699744063 L469.1081074957777,407.3487152911568 M469.1081074957777,407.3487152911568 L469.2298032305058,410.4677687114799 M469.2298032305058,410.4677687114799 L467.9397657497964,413.5659170219345 M467.9397657497964,413.5659170219345 L465.25710109800815,416.57948787809323 M465.25710109800815,416.57948787809323 L461.2300790740386,419.44591342051666 M461.2300790740386,419.44591342051666 L455.9356614951023,422.10509594034295 M455.9356614951023,422.10509594034295 L449.4783917206938,424.5007792611667 M449.4783917206938,424.5007792611667 L441.9885086170177,426.58185625990996 M441.9885086170177,426.58185625990996 L433.6194429219878,428.3036116605548 M433.6194429219878,428.3036116605548 L424.5445947778181,429.62881689153613 M424.5445947778181,429.62881689153613 L414.9535941938272,430.5286823035729 M414.9535941938272,430.5286823035729 L405.0480128005465,430.9835853675413 M405.0480128005465,430.9835853675413 L395.03674543836536,430.9835853675413 M395.03674543836536,430.9835853675413 L385.13116404508463,430.5286823035729 M385.13116404508463,430.5286823035729 L375.5401634610937,429.62881689153613 M375.5401634610937,429.62881689153613 L366.46531531692403,428.3036116605548 M366.46531531692403,428.3036116605548 L358.09624962189406,426.58185625990996 M358.09624962189406,426.58185625990996 L350.60636651821784,424.50077926116666 M350.60636651821784,424.50077926116666 L344.14909674380954,422.10509594034295 M344.14909674380954,422.10509594034295 L338.8546791648732,419.44591342051666 M338.8546791648732,419.44591342051666 L334.8276571409037,416.57948787809323 M334.8276571409037,416.57948787809323 L332.1449924891154,413.5659170219345 M332.1449924891154,413.5659170219345 L330.8549550084061,410.4677687114799 M330.8549550084061,410.4677687114799 L330.9766507431341,407.3487152911568 M330.9766507431341,407.3487152911568 L332.5002227173937,404.27219699744063 M332.5002227173937,404.27219699744063 L335.3876490392724,401.30013457606026 M335.3876490392724,401.30013457606026 L339.5740732372875,398.4917343852023 M339.5740732372875,398.4917343852023 L344.96961879481694,395.9023945658141 M344.96961879481694,395.9023945658141 L351.46154704225796,393.5827141612574 M351.46154704225796,393.5827141612574 L358.9168068705635,391.5776433044237 M358.9168068705635,391.5776433044237 L367.1847686096654,389.9257394139335 M367.1847686096654,389.9257394139335 L376.1002198003998,388.6585709350385 M376.1002198003998,388.6585709350385 L385.48644347538243,387.80022449544384 M385.48644347538243,387.80022449544384 L395.158459514902,387.3669577104507 M395.158459514902,387.3669577104507 L404.92629872400977,387.3669577104507 M404.92629872400977,387.3669577104507 L414.5983147635294,387.80022449544396 M414.5983147635294,387.80022449544396 L423.98453843851206,388.6585709350385 M423.98453843851206,388.6585709350385 L432.8999896292464,389.9257394139335 M432.8999896292464,389.9257394139335 L441.1679513683483,391.5776433044237 M441.1679513683483,391.5776433044237 L448.62321119665387,393.5827141612574 M440.29639277437246,271.2563802799151 L446.15368093375776,273.23496776638996 M446.15368093375776,273.23496776638996 L450.89585880422027,275.4592567500131 M450.89585880422027,275.4592567500131 L454.403244012711,277.87622557672796 M454.403244012711,277.87622557672796 L456.58485743424956,280.4277653966532 M456.58485743424956,280.4277653966532 L457.381088405965,283.0519712637057 M457.381088405965,283.0519712637057 L456.7657408568197,285.68457215257035 M456.7657408568197,285.68457215257035 L454.7473072600045,288.26047551461954 M454.7473072600045,288.26047551461954 L451.3694267049923,290.7153921655491 M451.3694267049923,290.7153921655491 L446.71040147549985,292.9874994456492 M446.71040147549985,292.9874994456492 L440.8817727923167,295.0190955341134 M440.8817727923167,295.0190955341134 L434.0258967114204,296.7581944159127 M434.0258967114204,296.7581944159127 L426.31256184115534,298.1599974358551 M426.31256184115534,298.1599974358551 L417.93473218389,299.18819544155116 M417.93473218389,299.18819544155116 L409.1034929410584,299.81604468980265 M409.1034929410584,299.81604468980265 L400.04237911945586,300.027165942592 M400.04237911945586,300.027165942592 L390.9812652978534,299.81604468980265 M390.9812652978534,299.81604468980265 L382.15002605502184,299.18819544155116 M382.15002605502184,299.18819544155116 L373.77219639775643,298.1599974358551 M373.77219639775643,298.1599974358551 L366.05886152749144,296.7581944159127 M366.05886152749144,296.7581944159127 L359.20298544659494,295.0190955341134 M359.20298544659494,295.0190955341134 L353.3743567634119,292.9874994456492 M353.3743567634119,292.9874994456492 L348.7153315339195,290.7153921655491 M348.7153315339195,290.7153921655491 L345.33745097890727,288.26047551461954 M345.33745097890727,288.26047551461954 L343.31901738209206,285.68457215257035 M343.31901738209206,285.68457215257035 L342.7036698329468,283.0519712637057 M342.7036698329468,283.0519712637057 L343.4999008046622,280.4277653966532 M343.4999008046622,280.4277653966532 L345.68151422620076,277.87622557672796 M345.68151422620076,277.87622557672796 L349.1888994346915,275.4592567500131 M349.1888994346915,275.4592567500131 L353.931077305154,273.23496776638996 M353.931077305154,273.23496776638996 L359.78836546453937,271.2563802799151 M359.78836546453937,271.2563802799151 L366.61559999938345,269.57029172186856 M366.61559999938345,269.57029172186856 L374.245793310122,268.2163114706892 M374.245793310122,268.2163114706892 L382.49411831390637,267.2260667965895 M382.49411831390637,267.2260667965895 L391.1621666505739,266.62258556139136 M391.1621666505739,266.62258556139136 L400.04237911945586,266.41986102469684 M400.04237911945586,266.41986102469684 L408.9225915883378,266.62258556139136 M408.9225915883378,266.62258556139136 L417.5906399250054,267.2260667965895 M417.5906399250054,267.2260667965895 L425.8389649287898,268.2163114706892 M425.8389649287898,268.2163114706892 L433.4691582395284,269.57029172186856 M433.4691582395284,269.57029172186856 L440.29639277437246,271.2563802799151 M448.62321119665387,393.5827141612574 L444.33215553425305,383.21218505690666 M444.33215553425305,383.21218505690666 L440.027734114048,372.80935388257194 M440.027734114048,372.80935388257194 L445.8455600936125,374.89686328874143 M445.8455600936125,374.89686328874143 L450.5555913059828,377.2435598601802 M450.5555913059828,377.2435598601802 L454.03897509330153,379.79349153898147 M454.03897509330153,379.79349153898147 L456.2053843710793,382.4853426365065 M456.2053843710793,382.4853426365065 L456.9956611902333,385.25379722447764 M456.9956611902333,385.25379722447764 L456.3838441865732,388.0310486688982 M456.3838441865732,388.0310486688982 L454.3784282984022,390.7484294861651 M454.3784282984022,390.7484294861651 L451.0228138825981,393.33812537767255 M451.0228138825981,393.33812537767255 L446.3948210441852,395.73492907087353 M446.3948210441852,395.73492907087353 L440.6052704031188,397.87798431576863 M440.6052704031188,397.87798431576863 L433.79557218001474,399.71246687276016 M433.79557218001474,399.71246687276016 L426.13436534511436,401.19113506649705 M426.13436534511436,401.19113506649705 L417.8132897496321,402.2757015700366 M417.8132897496321,402.2757015700366 L409.0419685237705,402.9379666735026 M409.0419685237705,402.9379666735026 L400.0423791194559,403.16065987518857 M400.0423791194559,403.16065987518857 L391.0427897151413,402.9379666735026 M391.0427897151413,402.9379666735026 L382.2714684892797,402.2757015700366 M382.2714684892797,402.2757015700366 L373.95039289379747,401.19113506649705 M373.95039289379747,401.19113506649705 L366.2891860588971,399.71246687276016 M366.2891860588971,399.71246687276016 L359.47948783579295,397.87798431576863 M359.47948783579295,397.87798431576863 L353.68993719472655,395.73492907087353 M353.68993719472655,395.73492907087353 L349.06194435631375,393.3381253776725 M349.06194435631375,393.3381253776725 L345.70632994050965,390.7484294861651 M345.70632994050965,390.7484294861651 L343.70091405233865,388.0310486688982 M343.70091405233865,388.0310486688982 L343.0890970486785,385.25379722447764 M343.0890970486785,385.25379722447764 L343.87937386783256,382.4853426365065 M343.87937386783256,382.4853426365065 L346.04578314561024,379.79349153898147 M346.04578314561024,379.79349153898147 L349.52916693292906,377.2435598601802 M349.52916693292906,377.2435598601802 L354.23919814529927,374.89686328874143 M354.23919814529927,374.89686328874143 L360.05702412486386,372.80935388257194 M360.05702412486386,372.80935388257194 L366.83846446233315,371.0304189445101 M366.83846446233315,371.0304189445101 L374.41764370974045,369.6018624961283 M374.41764370974045,369.6018624961283 L382.6109499337056,368.557065898713 M382.6109499337056,368.557065898713 L391.22126698349905,367.92033513715995 M391.22126698349905,367.92033513715995 L400.0423791194559,367.7064405433315 M400.0423791194559,367.7064405433315 L408.8634912554128,367.92033513715995 M408.8634912554128,367.92033513715995 L417.4738083052062,368.557065898713 M417.4738083052062,368.557065898713 L425.6671145291714,369.6018624961283 M425.6671145291714,369.6018624961283 L433.2462937765787,371.0304189445101 M433.2462937765787,371.0304189445101 L440.027734114048,372.80935388257194 M440.027734114048,372.80935388257194 L440.29639277437246,271.2563802799151" stroke="black"  stroke-width="4"  fill="red"/></svg>