<svg viewBox="0 0 800 800" xmlns="http://www.w3.org/2000/svg"><path d="M598.0917178521111,695.3524459237842 L599.4085009623076,362.2063190440462 M599.4085009623076,362.2063190440462 L623.620598574989,370.6967931483115 M623.620598574989,370.6967931483115 L644.259155451338,380.100901040654 M644.259155451338,380.100901040654 L660.9758730814918,390.27211550904303 M660.9758730814918,390.27211550904303 L673.4808403324071,401.05033103673685 M673.4808403324071,401.05033103673685 L681.5481528299383,412.26404108827734 M681.5481528299383,412.26404108827734 L685.0210531122364,423.732785226276 M685.0210531122364,423.732785226276 L683.8159070451453,435.26987231894213 M683.8159070451453,435.26987231894213 L677.9253564426566,446.6852861471661 M677.9253564426566,446.6852861471661 L667.420279662315,457.78886173293813 M667.420279662315,457.78886173293813 L652.450226979703,468.3935287319846 M652.450226979703,468.3935287319846 L633.2426565699436,478.3187259348398 M633.2426565699436,478.3187259348398 L610.1003135516949,487.3937255641333 M610.1003135516949,487.3937255641333 L583.3973079978555,495.46100025673115 M583.3973079978555,495.46100025673115 L553.573282871406,502.3793304306977 M553.573282871406,502.3793304306977 L521.1262703041004,508.0267483691489 M521.1262703041004,508.0267483691489 L486.60388878755333,512.3030739941745 M486.60388878755333,512.3030739941745 L450.5934806747836,515.1321035548535 M450.5934806747836,515.1321035548535 L413.71103408001403,516.4632515405137 M413.71103408001403,516.4632515405137 L376.58940799786353,516.2726577711792 M376.58940799786353,516.2726577711792 L339.86607569887593,514.5637488245112 M339.86607569887593,514.5637488245112 L304.17085988490913,511.36712742853746 M304.17085988490913,511.36712742853746 L270.1136295530676,506.7399142350305 M270.1136295530676,506.7399142350305 L238.27280319614582,500.7644841530124 M238.27280319614582,500.7644841530124 L209.18447985971062,493.54668528565367 M209.18447985971062,493.54668528565367 L183.33286903042097,485.21355139924214 M183.33286903042097,485.21355139924214 L161.14185913401053,475.9106588702853 M161.14185913401053,475.9106588702853 L142.9681532049002,465.79915182129537 M142.9681532049002,465.79915182129537 L129.096038904397,455.05251489827106 M129.096038904397,455.05251489827106 L119.7336413527234,443.8532684449098 M119.7336413527234,443.8532684449098 L115.010886081727,432.38955469007647 M115.010886081727,432.38955469007647 L114.97894688776364,420.8518221674955 M114.97894688776364,420.8518221674955 L119.61121886295382,409.42952800344705 M119.61121886295382,409.42952800344705 L128.8054244888013,398.3080781513745 M128.8054244888013,398.3080781513745 L142.38708006429454,387.6659371168103 M142.38708006429454,387.6659371168103 L160.11382789452662,377.67198570051073 M160.11382789452662,377.67198570051073 L181.68056031768944,368.48312038670684 M181.68056031768944,368.48312038670684 L206.72538863658542,360.24218082285626 M206.72538863658542,360.24218082285626 L234.83592731017936,353.0760923687019 M234.83592731017936,353.0760923687019 L265.5562033304176,347.0943499814904 M265.5562033304176,347.0943499814904 L298.39360838762946,342.3876962779942 M298.39360838762946,342.3876962779942 L332.8263762710818,339.0271472428974 M332.8263762710818,339.0271472428974 L368.3108606490983,337.0631718361211 M368.3108606490983,337.0631718361211 L404.28921978212304,336.52519787666273 M404.28921978212304,336.52519787666273 L440.196887912878,337.42126664520595 M440.196887912878,337.42126664520595 L475.47031630728617,339.7379667992444 M475.47031630728617,339.7379667992444 L509.5544790117834,343.4405922515182 M509.5544790117834,343.4405922515182 L541.9105072989514,348.4734603075102 M541.9105072989514,348.4734603075102 L572.0232099297434,354.7605517261921 M572.0232099297434,354.7605517261921 L599.4085009623076,362.2063190440462 M598.0917178521111,695.3524459237842 L570.8885016922419,687.5355058004516 M570.8885016922419,687.5355058004516 L540.9751796626217,680.9348998071625 M540.9751796626217,680.9348998071625 L508.8327024752817,675.6509934880944 M508.8327024752817,675.6509934880944 L474.97296774743904,671.7636437583576 M474.97296774743904,671.7636437583576 L439.93143265426755,669.3313467802996 M439.93143265426755,669.3313467802996 L404.25963245908514,668.3905632995218 M404.25963245908514,668.3905632995218 L368.5175839855527,668.9553829158199 M368.5175839855527,668.9553829158199 L333.26631606203074,671.0173576528554 M333.26631606203074,671.0173576528554 L299.0601661249803,674.5455717459067 M299.0601661249803,674.5455717459067 L266.4393453908852,679.4870057367597 M266.4393453908852,679.4870057367597 L235.92229353863058,685.7670576860078 M235.92229353863058,685.7670576860078 L207.99843978484512,693.2904077831924 M207.99843978484512,693.2904077831924 L183.12076835310154,701.9420451929524 M183.12076835310154,701.9420451929524 L161.6989089075049,711.5886603166946 M161.6989089075049,711.5886603166946 L144.09227294599393,722.0802410839653 M144.09227294599393,722.0802410839653 L130.6038148445964,733.2520274798642 M130.6038148445964,733.2520274798642 L121.47410954239996,744.9266914562481 M121.47410954239996,744.9266914562481 L116.87627272112417,756.9168605902785 M116.87627272112417,756.9168605902785 L116.91167020610146,769.0278944779063 M116.91167020610146,769.0278944779063 L121.60648930231929,781.0609203374356 M121.60648930231929,781.0609203374356 L130.90966243147324,792.81604524048 M130.90966243147324,792.81604524048 L144.69191633061214,804.0958167490307 M144.69191633061214,804.0958167490307 L162.74633518844763,814.7087009643543 M162.74633518844763,814.7087009643543 L184.7903967015202,824.472662450818 M184.7903967015202,824.472662450818 L210.46970376741945,833.218628736132 M210.46970376741945,833.218628736132 L239.36318529593802,840.7938726122608 M239.36318529593802,840.7938726122608 L270.9899161113055,847.0651291681953 M270.9899161113055,847.0651291681953 L304.81748901091095,851.9213645585114 M304.81748901091095,851.9213645585114 L340.27151344923965,855.2761720214444 M340.27151344923965,855.2761720214444 L376.7464004419115,857.0696371044314 M376.7464004419115,857.0696371044314 L413.6167680415428,857.2696609504919 M413.6167680415428,857.2696609504919 L450.24964569200256,855.8726494833782 M450.24964569200256,855.8726494833782 L486.01663975477027,852.9036293055199 M486.01663975477027,852.9036293055199 L520.3060913304993,848.4156597532314 M520.3060913304993,848.4156597532314 L552.5347573292246,842.4886736281128 M552.5347573292246,842.4886736281128 L582.1588022708635,835.2277577695172 M582.1588022708635,835.2277577695172 L608.6835863677136,826.7608606195795 M608.6835863677136,826.7608606195795 L631.6724052788144,817.2361359892359 M631.6724052788144,817.2361359892359 L650.7535864234508,806.818858371511 M650.7535864234508,806.818858371511 L665.6262867794582,795.6881665722433 M665.6262867794582,795.6881665722433 L676.0643973740135,784.0335341883256 M676.0643973740135,784.0335341883256 L681.9191586415944,772.0512839195972 M681.9191586415944,772.0512839195972 L683.1199336200627,759.9410060115274 M683.1199336200627,759.9410060115274 L679.6737910321052,747.9021549761652 M679.6737910321052,747.9021549761652 L671.6635735809422,736.1307153442148 M671.6635735809422,736.1307153442148 L659.2447813385028,724.8161502772043 M659.2447813385028,724.8161502772043 L642.6416351196441,714.138540465123 M642.6416351196441,714.138540465123 L622.1419813553557,704.2660118595594 M622.1419813553557,704.2660118595594 L598.0917178521111,695.3524459237842 M599.4085009623076,362.2063190440462 L587.1808685029674,332.5192138160602 M587.1808685029674,332.5192138160602 L574.9206697225052,302.75304178546526 M574.9206697225052,302.75304178546526 L597.4051675996042,310.63471646291663 M597.4051675996042,310.63471646291663 L616.296712739016,319.4038642471785 M616.296712739016,319.4038642471785 L631.2339878987982,328.90429599051953 M631.2339878987982,328.90429599051953 L641.9235544484584,338.96515624046685 M641.9235544484584,338.96515624046685 L648.1462278187462,349.40368891152144 M648.1462278187462,349.40368891152144 L649.7627146503227,360.0282456753614 M649.7627146503227,360.0282456753614 L646.7178977688133,370.6416506670933 M646.7178977688133,370.6416506670933 L639.0436592541847,381.0447948904914 M639.0436592541847,381.0447948904914 L626.8601985577097,391.0404378189927 M626.8601985577097,391.0404378189927 L610.3754896997772,400.4371179536322 M610.3754896997772,400.4371179536322 L589.8828577068547,409.0530969883998 M589.8828577068547,409.0530969883998 L565.7566423137918,416.7202489841438 M565.7566423137918,416.7202489841438 L538.4457897296677,423.2877577788153 M538.4457897296677,423.2877577788153 L508.465577477627,428.62553013053133 M508.465577477627,428.62553013053133 L476.38757729121977,432.62722529029236 M476.38757729121977,432.62722529029236 L442.8280081873678,435.2127532562736 M442.8280081873678,435.2127532562736 L408.4348591516815,436.33019937185077 M408.4348591516815,436.33019937185077 L373.87409291109105,435.9570921092911 M373.87409291109105,435.9570921092911 L339.8152829396369,434.10093333490295 M339.8152829396369,434.10093333490295 L306.9171832819457,430.79903146135393 M306.9171832819457,430.79903146135393 L275.81353945867966,426.1175982991834 M275.81353945867966,426.1175982991834 L247.09982558870576,420.1501134548389 M247.09982558870576,420.1501134548389 L221.32081206445187,413.01515017361277 M221.32081206445187,413.01515017361277 L198.95976037245362,404.8535668728333 M198.95976037245362,404.8535668728333 L180.42922888714955,395.82528192646714 M180.42922888714955,395.82528192646714 L166.06374897865678,386.1056994747528 M166.06374897865678,386.1056994747528 L156.11434682472844,375.8819233513763 M156.11434682472844,375.8819233513763 L150.745319553475,365.3487870683653 M150.745319553475,365.3487870683653 L150.0326625344989,354.70495197422554 M150.0326625344989,354.70495197422554 L153.9644770162355,344.14902301008624 M153.9644770162355,344.14902301008624 L162.4431118966879,333.8758485449256 M162.4431118966879,333.8758485449256 L175.28871946385865,324.0730342243608 M175.28871946385865,324.0730342243608 L192.2442186726556,314.9177457308782 M192.2442186726556,314.9177457308782 L212.98135982865918,306.5738231712405 M212.98135982865918,306.5738231712405 L237.10765468434172,299.1892181666269 M237.10765468434172,299.1892181666269 L264.17413389420943,292.89379168791834 M264.17413389420943,292.89379168791834 L293.683628911314,287.7974549003442 M293.683628911314,287.7974549003442 L325.0994713815995,283.9886378177418 M325.0994713815995,283.9886378177418 L357.8545524705853,281.5331201588671 M357.8545524705853,281.5331201588671 L391.36055813797645,280.4731697617752 M391.36055813797645,280.4731697617752 L425.01733712092994,280.8269920437048 M425.01733712092994,280.8269920437048 L458.22237771325365,282.5885158750715 M458.22237771325365,282.5885158750715 L490.3802597544792,285.72745493355563 M490.3802597544792,285.72745493355563 L520.9121406606598,290.18968921039357 M520.9121406606598,290.18968921039357 L549.2649493514798,295.898000568469 M549.2649493514798,295.898000568469 L574.9206697225052,302.75304178546526 M557.1236007584836,709.0084849549935 L532.9830043364443,702.1440270303086 M532.9830043364443,702.1440270303086 L506.207634422178,696.4882885292368 M506.207634422178,696.4882885292368 L477.33292369191076,692.1495534584193 M477.33292369191076,692.1495534584193 L446.93163723400244,689.210501742455 M446.93163723400244,689.210501742455 L415.6035748838659,687.7269250520719 M415.6035748838659,687.7269250520719 L383.9647880291425,687.7269250520719 M383.9647880291425,687.7269250520719 L352.636725679006,689.210501742455 M352.636725679006,689.210501742455 L322.2354392210977,692.1495534584193 M322.2354392210977,692.1495534584193 L293.3607284908304,696.4882885292368 M293.3607284908304,696.4882885292368 L266.5853585765642,702.1440270303086 M266.5853585765642,702.1440270303086 L242.44476215452406,709.0084849549937 M242.44476215452406,709.0084849549937 L221.42675884948528,716.9493925320023 M221.42675884948528,716.9493925320023 L203.96208680738238,725.8126413767109 M203.96208680738238,725.8126413767109 L190.41531122323016,735.4247730214315 M190.41531122323016,735.4247730214315 L181.07686937250213,745.5960044557427 M181.07686937250213,745.5960044557427 L176.15589729901473,756.1235564097009 M176.15589729901473,756.1235564097009 L175.77453220475425,766.7954516217038 M175.77453220475425,766.7954516217038 L179.9636632962669,777.3946327038997 M179.9636632962669,777.3946327038997 L188.66043230274695,787.7033217663991 M188.66043230274695,787.7033217663991 L201.70768311621293,797.507607237814 M201.70768311621293,797.507607237814 L218.85544741670208,806.6021434669474 M218.85544741670208,806.6021434669474 L239.7648437621117,814.7947372871179 M239.7648437621117,814.7947372871179 L264.0139438192162,821.9108917170053 M264.0139438192162,821.9108917170053 L291.1061509553913,827.7979444519406 M291.1061509553913,827.7979444519406 L320.4803711308942,832.3288691248299 M320.4803711308942,832.3288691248299 L351.52337516771587,835.405411035008 M351.52337516771587,835.405411035008 L383.5833690915929,836.9606362101044 M383.5833690915929,836.9606362101044 L415.9849938214155,836.9606362101044 M415.9849938214155,836.9606362101044 L448.04498774529253,835.405411035008 M448.04498774529253,835.405411035008 L479.0879917821143,832.3288691248299 M479.0879917821143,832.3288691248299 L508.4622119576171,827.7979444519406 M508.4622119576171,827.7979444519406 L535.5544190937923,821.9108917170054 M535.5544190937923,821.9108917170054 L559.8035191508981,814.7947372871174 M559.8035191508981,814.7947372871174 L580.7129154963063,806.6021434669474 M580.7129154963063,806.6021434669474 L597.8606797967955,797.507607237814 M597.8606797967955,797.507607237814 L610.9079306102615,787.7033217663991 M610.9079306102615,787.7033217663991 L619.6046996167415,777.3946327038998 M619.6046996167415,777.3946327038998 L623.7938307082542,766.7954516217038 M623.7938307082542,766.7954516217038 L623.4124656139936,756.1235564097009 M623.4124656139936,756.1235564097009 L618.4914935405062,745.5960044557427 M618.4914935405062,745.5960044557427 L609.1530516897782,735.4247730214315 M609.1530516897782,735.4247730214315 L595.606276105626,725.812641376711 M595.606276105626,725.812641376711 L578.1416040635232,716.9493925320023 M578.1416040635232,716.9493925320023 L557.1236007584836,709.0084849549935 M574.9206697225052,302.75304178546526 L576.0945070373336,-36.15056011003122 M576.0945070373336,-36.15056011003122 L598.731515934919,-28.679256894633966 M598.731515934919,-28.679256894633966 L617.7520602088262,-20.366528393732096 M617.7520602088262,-20.366528393732096 L632.7922964608451,-11.360388032034791 M632.7922964608451,-11.360388032034791 L643.5566659113367,-1.8227618774663483 M643.5566659113367,-1.8227618774663483 L649.8243220941501,8.07312937586562 M649.8243220941501,8.07312937586562 L651.4548186347854,18.14561934796575 M651.4548186347854,18.14561934796575 L648.3924383415566,28.207783780108628 M648.3924383415566,28.207783780108628 L640.6690520700985,38.07084736686369 M640.6690520700985,38.07084736686369 L628.4054628276489,47.5477883835477 M628.4054628276489,47.5477883835477 L611.8108754356255,56.457047978948594 M611.8108754356255,56.457047978948594 L591.1804704889985,64.62627259463926 M591.1804704889985,64.62627259463926 L566.8910492590771,71.8960053057026 M566.8910492590771,71.8960053057026 L539.3945883035213,78.12319610634415 M539.3945883035213,78.12319610634415 L509.2099095762896,83.18444306137758 M509.2099095762896,83.18444306137758 L476.91257151216627,86.97886975456294 M476.91257151216627,86.97886975456294 L443.1231344420877,89.43049851968391 M443.1231344420877,89.43049851968391 L408.49418301127514,90.49007891953573 M408.49418301127514,90.49007891953573 L373.69642021685553,90.13629230130283 M373.69642021685553,90.13629230130283 L339.40418893026253,88.37625568192954 M339.40418893026253,88.37625568192954 L306.2809253956962,85.24536317790631 M306.2809253956962,85.24536317790631 L274.9648565970885,80.80642785376955 M274.9648565970885,80.80642785376955 L246.05563274249823,75.14812780068297 M246.05563274249823,75.14812780068297 L220.10179970104014,68.38294057478328 M220.10179970104014,68.38294057478328 L197.58991429248564,60.64447556040767 M197.58991429248564,60.64447556040767 L178.9352865507306,52.08441095979447 M178.9352865507306,52.08441095979447 L164.47461006493978,42.86910009171578 M164.47461006493978,42.86910009171578 L154.46045518715522,33.1759773799609 M154.46045518715522,33.1759773799609 L149.058035743539,23.189790864063582 M149.058035743539,23.189790864063582 L148.34364085516333,13.098900519815913 M148.34364085516333,13.098900519815913 L152.30506210738923,3.0915945908553226 M152.30506210738923,3.0915945908553226 L160.84376685024273,-6.647418183012235 M160.84376685024273,-6.647418183012235 L173.7784940476615,-15.940312119563828 M173.7784940476615,-15.940312119563828 L190.8502650609151,-24.619173074684625 M190.8502650609151,-24.619173074684625 L211.72850024564136,-32.528730541425546 M211.72850024564136,-32.528730541425546 L236.0180031108477,-39.528783147493016 M236.0180031108477,-39.528783147493016 L263.26677332986446,-45.49628180136591 M263.26677332986446,-45.49628180136591 L292.97434355092855,-50.32708762301576 M292.97434355092855,-50.32708762301576 L324.6005325181212,-53.93741937877866 M324.6005325181212,-53.93741937877866 L357.57455696189595,-56.26495810392174 M357.57455696189595,-56.26495810392174 L391.3043176800556,-57.26966095049187 M391.3043176800556,-57.26966095049187 L425.1858170723198,-56.934281139353686 M425.1858170723198,-56.934281139353686 L458.61268496889767,-55.2645700922007 M458.61268496889767,-55.2645700922007 L490.9856792548629,-52.289219554580654 M490.9856792548629,-52.289219554580654 L521.7222215055274,-48.059501348761955 M521.7222215055274,-48.059501348761955 L550.2656402688398,-42.64857253483342 M550.2656402688398,-42.64857253483342 L576.0945070373336,-36.15056011003122 M557.1236007584836,709.0084849549935 L558.1706687662607,375.21422584414165 M558.1706687662607,375.21422584414165 L579.3300711319812,382.7784233253617 M579.3300711319812,382.7784233253617 L596.9129894335653,391.2213589870141 M596.9129894335653,391.2213589870141 L610.5523329559011,400.37784517866555 M610.5523329559011,400.37784517866555 L619.955586296029,410.06713345686046 M619.955586296029,410.06713345686046 L624.9120404446152,420.09608116589914 M624.9120404446152,420.09608116589914 L625.2985417150417,430.262766717912 M625.2985417150417,430.262766717912 L621.0837849757766,440.3604105982875 M621.0837849757766,440.3604105982875 L612.3308467603721,450.1815281355093 M612.3308467603721,450.1815281355093 L599.1977561300807,459.5223002478714 M599.1977561300807,459.5223002478714 L581.9360144294941,468.1870531313068 M581.9360144294941,468.1870531313068 L560.8866825378177,475.9926315782376 M560.8866825378177,475.9926315782376 L536.4744838365594,482.772732497009 M536.4744838365594,482.772732497009 L509.1993730932822,488.38185302011516 M509.1993730932822,488.38185302011516 L479.6262957817574,492.698917509212 M479.6262957817574,492.698917509212 L448.37273604568463,495.630270172755 M448.37273604568463,495.630270172755 L416.0950437992613,497.1121079702683 M416.0950437992613,497.1121079702683 L383.473319113747,497.1121079702683 M383.473319113747,497.1121079702683 L351.19562686732365,495.630270172755 M351.19562686732365,495.630270172755 L319.942067131251,492.698917509212 M319.942067131251,492.698917509212 L290.3689898197261,488.38185302011516 M290.3689898197261,488.38185302011516 L263.09387907644884,482.772732497009 M263.09387907644884,482.772732497009 L238.68168037519015,475.9926315782375 M238.68168037519015,475.9926315782375 L217.6323484835141,468.1870531313068 M217.6323484835141,468.1870531313068 L200.37060678292755,459.5223002478714 M200.37060678292755,459.5223002478714 L187.2375161526363,450.1815281355093 M187.2375161526363,450.1815281355093 L178.48457793723168,440.3604105982875 M178.48457793723168,440.3604105982875 L174.26982119796662,430.262766717912 M174.26982119796662,430.262766717912 L174.65632246839317,420.09608116589914 M174.65632246839317,420.09608116589914 L179.61277661697932,410.06713345686046 M179.61277661697932,410.06713345686046 L189.01602995710726,400.37784517866555 M189.01602995710726,400.37784517866555 L202.655373479443,391.2213589870141 M202.655373479443,391.2213589870141 L220.2382917810271,382.7784233253617 M220.2382917810271,382.7784233253617 L241.39769414674774,375.21422584414154 M241.39769414674774,375.21422584414154 L265.69992850059384,368.67551586358826 M265.69992850059384,368.67551586358826 L292.6539350750079,363.2882386628093 M292.6539350750079,363.2882386628093 L321.72077523555095,359.15549486397833 M321.72077523555095,359.15549486397833 L352.32397389907203,356.3560031138866 M352.32397389907203,356.3560031138866 L383.8598756876432,354.942880302341 M383.8598756876432,354.942880302341 L415.70848722536516,354.942880302341 M415.70848722536516,354.942880302341 L447.2443890139363,356.3560031138866 M447.2443890139363,356.3560031138866 L477.8475876774574,359.15549486397833 M477.8475876774574,359.15549486397833 L506.91442783800045,363.2882386628093 M506.91442783800045,363.2882386628093 L533.8684344124144,368.67551586358826 M533.8684344124144,368.67551586358826 L558.1706687662607,375.21422584414165 M534.4166456101066,-23.91229604938877 L554.0067282724802,-17.280970862692186 M554.0067282724802,-17.280970862692186 L569.8672294824905,-9.826170321576626 M569.8672294824905,-9.826170321576626 L581.5978663704633,-1.72560012109534 M581.5978663704633,-1.72560012109534 L588.8943577283999,6.825984462917802 M588.8943577283999,6.825984462917802 L591.5573375749723,15.62110588208435 M591.5573375749723,15.62110588208435 L589.4991980170863,24.44435716651293 M589.4991980170863,24.44435716651293 L582.7483494283783,33.07757860264104 M582.7483494283783,33.07757860264104 L571.4507518379403,41.30530358510367 M571.4507518379403,41.30530358510367 L555.8682974716882,48.92033267996641 M555.8682974716882,48.92033267996641 L536.3740467146399,55.72927798576734 M536.3740467146399,55.72927798576734 L513.4441201885081,61.55790854692424 M513.4441201885081,61.55790854692424 L487.6463863326919,66.256082119278 M487.6463863326919,66.256082119278 L459.62622312884986,69.70210914324144 M459.62622312884986,69.70210914324144 L430.0896143029871,71.8063584935503 M430.0896143029871,71.8063584935503 L399.7841814565041,72.51393552606743 M399.7841814565041,72.51393552606743 L369.47874861002117,71.8063584935503 M369.47874861002117,71.8063584935503 L339.9421397841584,69.70210914324144 M339.9421397841584,69.70210914324144 L311.9219765803163,66.256082119278 M311.9219765803163,66.256082119278 L286.12424272450005,61.55790854692424 M286.12424272450005,61.55790854692424 L263.1943161983681,55.72927798576717 M263.1943161983681,55.72927798576717 L243.70006544132,48.92033267996641 M243.70006544132,48.92033267996641 L228.11761107506797,41.30530358510367 M228.11761107506797,41.30530358510367 L216.82001348462987,33.07757860264104 M216.82001348462987,33.07757860264104 L210.0691648959219,24.44435716651259 M210.0691648959219,24.44435716651259 L208.01102533803595,15.62110588208435 M208.01102533803595,15.62110588208435 L210.6740051846083,6.825984462917461 M210.6740051846083,6.825984462917461 L217.97049654254496,-1.72560012109534 M217.97049654254496,-1.72560012109534 L229.70113343051773,-9.826170321576626 M229.70113343051773,-9.826170321576626 L245.56163464052793,-17.280970862692186 M245.56163464052793,-17.280970862692186 L265.1517173029018,-23.91229604938877 M265.1517173029018,-23.91229604938877 L287.9858718517282,-29.56330072477232 M287.9858718517282,-29.56330072477232 L313.5055959013449,-34.10123076449065 M313.5055959013449,-34.10123076449065 L341.092719807644,-37.42008456080288 M341.092719807644,-37.42008456080288 L370.08364882672925,-39.44268208465479 M370.08364882672925,-39.44268208465479 L399.7841814565041,-40.12212357732233 M399.7841814565041,-40.12212357732233 L429.4847140862789,-39.44268208465479 M429.4847140862789,-39.44268208465479 L458.47564310536416,-37.42008456080288 M458.47564310536416,-37.42008456080288 L486.0627670116633,-34.10123076449065 M486.0627670116633,-34.10123076449065 L511.58249106128005,-29.56330072477232 M511.58249106128005,-29.56330072477232 L534.4166456101066,-23.91229604938877 M558.1706687662607,375.21422584414165 L545.8609119252237,345.47851618803764 M545.8609119252237,345.47851618803764 L533.5182971175658,315.6634341310045 M533.5182971175658,315.6634341310045 L552.9764255722627,322.65879243454447 M552.9764255722627,322.65879243454447 L568.729434616744,330.52269664980395 M568.729434616744,330.52269664980395 L580.3798157611722,339.0676470871893 M580.3798157611722,339.0676470871893 L587.6254680424556,348.0881706381751 M587.6254680424556,348.0881706381751 L590.2685391942276,357.3653897083534 M590.2685391942276,357.3653897083534 L588.2222060523001,366.6720808362752 M588.2222060523001,366.6720808362752 L581.5148871430616,375.7781364606108 M581.5148871430616,375.7781364606108 L570.2917441339846,384.45630871021456 M570.2917441339846,384.45630871021456 L554.8130568652862,392.4880865242469 M554.8130568652862,392.4880865242469 L535.4494761185645,399.66953972586805 M535.4494761185645,399.66953972586805 L512.6739597964054,405.816951906859 M512.6739597964054,405.816951906859 L487.05053216962546,410.77201619555416 M487.05053216962546,410.77201619555416 L459.2201435404155,414.40643195419835 M459.2201435404155,414.40643195419835 L429.88388880074575,416.6257022172665 M429.88388880074575,416.6257022172665 L399.78418145650414,417.37195374351256 M399.78418145650414,417.37195374351256 L369.6844741122626,416.6257022172665 M369.6844741122626,416.6257022172665 L340.3482193725928,414.40643195419835 M340.3482193725928,414.40643195419835 L312.5178307433828,410.77201619555416 M312.5178307433828,410.77201619555416 L286.8944031166029,405.816951906859 M286.8944031166029,405.816951906859 L264.11888679444365,399.66953972586793 M264.11888679444365,399.66953972586793 L244.75530604772212,392.4880865242469 M244.75530604772212,392.4880865242469 L229.27661877902375,384.45630871021456 M229.27661877902375,384.45630871021456 L218.0534757699466,375.7781364606108 M218.0534757699466,375.7781364606108 L211.3461568607084,366.6720808362752 M211.3461568607084,366.6720808362752 L209.2998237187807,357.3653897083534 M209.2998237187807,357.3653897083534 L211.94289487055272,348.08817063817474 M211.94289487055272,348.08817063817474 L219.1885471518361,339.0676470871893 M219.1885471518361,339.0676470871893 L230.83892829626424,330.52269664980395 M230.83892829626424,330.52269664980395 L246.5919373407456,322.65879243454447 M246.5919373407456,322.65879243454447 L266.0500657954425,315.6634341310045 M266.0500657954425,315.6634341310045 L288.73109274276356,309.7021228096519 M288.73109274276356,309.7021228096519 L314.08023464562694,304.9149476031903 M314.08023464562694,304.9149476031903 L341.48338513947783,301.4137727228165 M341.48338513947783,301.4137727228165 L370.2812704552456,299.28005001179616 M370.2812704552456,299.28005001179616 L399.78418145650414,298.56327640837566 M399.78418145650414,298.56327640837566 L429.2870924577627,299.28005001179616 M429.2870924577627,299.28005001179616 L458.0849777735304,301.4137727228165 M458.0849777735304,301.4137727228165 L485.48812826738134,304.9149476031903 M485.48812826738134,304.9149476031903 L510.8372701702448,309.7021228096519 M510.8372701702448,309.7021228096519 L533.5182971175658,315.6634341310045 M533.5182971175658,315.6634341310045 L534.4166456101066,-23.91229604938877" stroke="black"  stroke-width="4"  fill="red"/></svg>